<svg xmlns="http://www.w3.org/2000/svg" viewBox="0 0 64 64"><path data-name="layer1" d="M18 26.048c0 6.131 3.359 11.539 7 14.79v3.178c0 2-1.029 5.095-11 7a15.549 15.549 0 0 0-12 11h60a13.366 13.366 0 0 0-11-11c-10-1.812-12-5-12-7v-3.205c3.625-3.252 7-8.647 7-14.762v-9.6c0-10.4-7.375-14.464-14-14.464S18 6.048 18 16.449z" fill="#c3d6f9"></path><path data-name="opacity" d="M2 62a15.545 15.545 0 0 1 12-10.992c9.971-1.906 11-4.993 11-6.993v-3.177c-3.641-3.251-7-8.658-7-14.79v-9.6c0-10.4 7.371-14.464 14-14.464V62z" fill="#000064" opacity=".1"></path></svg>